<?xml version="1.0" standalone="no"?>
<!DOCTYPE svg PUBLIC "-//W3C//DTD SVG 20010904//EN"
 "http://www.w3.org/TR/2001/REC-SVG-20010904/DTD/svg10.dtd">
<svg version="1.0" xmlns="http://www.w3.org/2000/svg"
 width="512.000000pt" height="512.000000pt" viewBox="0 0 512.000000 512.000000"
 preserveAspectRatio="xMidYMid meet">

<g transform="translate(0.000000,512.000000) scale(0.100000,-0.100000)"
fill="#fff" stroke="none">
<path d="M1686 5101 c-113 -25 -269 -102 -354 -174 -189 -162 -292 -383 -292
-629 0 -129 8 -164 112 -517 116 -390 100 -376 426 -376 223 0 224 0 243 24
25 30 24 76 -1 101 -19 19 -33 20 -218 20 -145 0 -203 3 -216 13 -16 12 -130
372 -176 562 -24 98 -26 246 -5 330 29 115 90 221 179 310 91 92 170 141 286
177 108 33 267 32 405 -5 184 -48 285 -61 490 -61 205 0 306 13 490 61 79 21
124 27 210 27 197 0 335 -56 470 -189 90 -90 135 -159 172 -267 31 -90 41
-238 24 -330 -23 -118 -171 -603 -188 -615 -13 -10 -199 -13 -849 -13 l-833 0
-20 -26 c-12 -15 -21 -36 -21 -48 0 -31 34 -64 72 -71 18 -3 404 -5 858 -3
912 3 856 -1 913 67 32 39 41 62 139 391 l82 275 0 160 c1 155 0 163 -32 255
-47 136 -101 220 -206 326 -167 166 -345 239 -581 238 -100 -1 -143 -6 -255
-33 -330 -80 -554 -80 -890 -1 -176 41 -310 48 -434 21z"/>
<path d="M2035 4758 c-28 -16 -35 -28 -35 -65 0 -45 34 -68 138 -92 158 -36
245 -45 427 -45 182 0 269 9 427 45 109 25 140 48 136 97 -2 24 -11 41 -30 55
l-27 20 -123 -26 c-288 -62 -514 -61 -783 2 -99 24 -103 24 -130 9z"/>
<path d="M1685 3226 c-61 -26 -115 -112 -115 -182 0 -52 -12 -82 -36 -88 -13
-4 -40 -21 -60 -39 -98 -85 -97 -233 1 -314 l38 -31 -9 -79 -9 -78 -55 -13
c-110 -27 -156 -90 -147 -201 3 -36 9 -76 13 -89 7 -23 6 -23 -52 -17 -92 10
-164 -12 -326 -100 -295 -162 -320 -178 -345 -225 l-23 -44 2 -812 c3 -803 3
-813 24 -840 11 -15 33 -37 48 -48 l27 -21 1890 -3 c2089 -2 1931 -7 1985 64
l29 37 3 406 c2 282 -1 413 -9 432 -21 53 -102 59 -128 10 -7 -13 -11 -154
-11 -410 l0 -391 -1855 0 -1855 0 2 777 3 777 150 84 c269 151 282 156 355
156 70 0 125 -21 134 -51 3 -10 15 -69 27 -131 26 -132 40 -156 94 -156 40 0
75 30 75 64 0 10 -25 132 -55 271 -60 274 -63 304 -39 313 9 3 510 6 1114 6
997 0 1099 -1 1111 -16 11 -14 10 -33 -10 -123 -69 -325 -131 -634 -206 -1036
-100 -536 -104 -545 -211 -574 -73 -19 -152 18 -189 89 -7 14 -48 250 -90 525
-85 550 -90 571 -169 650 -77 77 -188 111 -300 94 -32 -6 -73 -17 -90 -26 -82
-42 -152 -123 -177 -205 -5 -18 -43 -249 -85 -513 -41 -264 -79 -494 -84 -511
-23 -68 -111 -119 -185 -107 -41 7 -107 61 -124 100 -6 15 -42 194 -80 396
-40 211 -76 379 -86 393 -12 18 -24 24 -54 24 -47 0 -71 -24 -71 -71 0 -34
121 -701 140 -767 13 -48 66 -126 106 -157 112 -86 260 -92 375 -15 55 36 102
99 123 165 8 28 49 267 90 533 53 342 80 493 93 520 29 54 99 95 166 95 29 0
66 -7 83 -16 44 -23 91 -80 103 -124 5 -21 42 -249 82 -508 39 -259 80 -493
90 -521 81 -220 393 -267 540 -82 49 63 60 99 114 393 46 252 192 995 201
1028 9 30 64 51 134 51 73 0 86 -5 355 -156 l150 -84 5 -246 c4 -216 7 -250
22 -268 26 -30 81 -27 107 6 20 25 21 39 21 276 0 266 -4 293 -51 337 -13 12
-121 76 -239 141 -240 133 -305 157 -403 145 -59 -6 -60 -6 -53 17 4 13 10 53
13 90 5 60 3 71 -21 112 -29 50 -75 79 -143 91 l-41 6 -7 81 c-7 80 -7 82 19
101 37 26 73 93 81 149 10 65 -27 145 -86 187 -23 17 -48 31 -55 31 -13 0 -18
18 -29 105 -4 27 -13 61 -20 75 -18 34 -64 77 -98 89 -45 17 -1713 14 -1752
-3z m1715 -155 c5 -11 10 -38 10 -60 l0 -41 -849 0 -849 0 5 43 c11 85 -79 77
848 77 805 0 825 0 835 -19z m160 -271 c11 -11 20 -29 20 -40 0 -11 -9 -29
-20 -40 -20 -20 -33 -20 -997 -20 -895 0 -978 1 -995 17 -22 20 -23 61 -1 85
15 17 59 18 995 18 965 0 978 0 998 -20z m-86 -302 c3 -29 6 -61 6 -70 0 -17
-50 -18 -915 -18 l-915 0 0 24 c0 13 3 44 6 70 l7 46 902 0 902 0 7 -52z"/>
</g>
</svg>
