<?xml version="1.0" standalone="no"?>
<!DOCTYPE svg PUBLIC "-//W3C//DTD SVG 20010904//EN"
 "http://www.w3.org/TR/2001/REC-SVG-20010904/DTD/svg10.dtd">
<svg version="1.0" xmlns="http://www.w3.org/2000/svg"
 width="512.000000pt" height="512.000000pt" viewBox="0 0 512.000000 512.000000"
 preserveAspectRatio="xMidYMid meet">

<g transform="translate(0.000000,512.000000) scale(0.100000,-0.100000)"
fill="#fff" stroke="none">
<path d="M1707 4945 c-163 -31 -370 -121 -449 -196 -48 -45 -50 -79 -8 -120
36 -37 43 -36 165 36 177 103 326 142 515 132 102 -5 134 -12 345 -73 95 -28
109 -29 290 -28 176 1 197 3 280 28 255 75 269 78 425 73 114 -3 160 -9 215
-27 155 -50 288 -133 400 -251 192 -203 284 -448 272 -724 -9 -198 -67 -355
-198 -536 -68 -95 -103 -180 -166 -404 -93 -331 -90 -323 -142 -374 -73 -73
-106 -81 -353 -81 -208 0 -209 0 -233 -25 -33 -32 -33 -78 0 -110 22 -23 31
-25 121 -25 l96 0 -6 -67 c-3 -38 -8 -105 -12 -151 l-6 -82 -47 5 c-25 3 -340
30 -700 60 -359 30 -654 55 -656 57 -1 2 -6 42 -10 91 l-7 87 497 0 496 0 24
25 c30 29 32 74 6 106 l-19 24 -629 5 -628 5 -45 23 c-94 49 -120 93 -175 292
-91 333 -131 436 -214 549 -95 130 -157 273 -181 423 -16 99 -8 301 15 394 22
88 15 119 -28 140 -38 18 -78 8 -101 -28 -28 -43 -56 -218 -56 -346 0 -247 61
-437 213 -665 78 -117 90 -145 173 -437 70 -243 94 -303 148 -367 68 -79 203
-143 300 -143 l43 0 7 -52 c3 -29 6 -67 6 -84 l0 -30 -59 4 c-54 4 -62 2 -85
-21 -52 -53 -17 -137 57 -137 19 0 48 -3 65 -6 34 -7 33 -5 46 -176 l5 -68
-73 7 c-70 5 -75 4 -100 -20 -33 -34 -34 -79 -3 -111 19 -19 39 -25 104 -31
l80 -7 7 -66 c3 -37 6 -88 6 -114 l0 -48 -45 0 c-35 0 -52 -6 -70 -25 -53 -52
-15 -135 62 -135 56 0 65 -10 72 -81 4 -35 17 -83 29 -106 12 -23 22 -46 22
-50 0 -5 -18 -7 -39 -5 -74 7 -118 -72 -72 -129 15 -19 35 -25 116 -35 53 -7
98 -14 99 -16 2 -2 56 -105 121 -231 64 -125 130 -245 147 -267 l29 -41 349 3
c320 3 351 5 367 21 10 10 61 100 114 200 l97 182 92 0 c84 0 93 2 111 24 43
53 5 131 -65 131 -19 0 -38 5 -41 10 -4 6 20 61 53 123 l60 112 58 -3 c78 -5
114 20 114 78 0 48 -35 80 -89 80 -63 0 -64 4 -55 131 l9 114 82 -4 c77 -3 83
-2 107 22 33 34 34 80 3 111 -19 19 -39 25 -105 31 l-80 7 4 56 c3 32 7 85 10
120 l6 63 68 -7 c65 -6 70 -5 94 19 50 50 17 137 -51 137 -15 0 -45 3 -66 7
l-39 6 6 81 c4 45 9 113 12 152 l6 71 65 6 c94 9 189 56 257 126 82 86 81 85
185 453 62 215 80 257 165 380 83 120 139 240 173 366 23 86 27 116 27 267 0
143 -3 184 -21 256 -104 412 -392 721 -778 835 -70 20 -119 27 -223 31 -159 7
-241 -5 -409 -57 -68 -21 -157 -44 -198 -51 -96 -15 -236 -6 -335 21 -271 75
-304 82 -435 86 -88 2 -155 -1 -208 -11z m896 -3110 c351 -29 640 -55 642 -57
5 -5 -10 -226 -16 -232 -2 -2 -202 13 -444 34 -242 21 -540 46 -663 56 -122
10 -227 21 -232 24 -9 6 -32 218 -25 230 4 6 -37 9 738 -55z m-35 -399 c353
-29 645 -56 648 -59 3 -2 1 -56 -3 -118 l-8 -114 -30 2 c-16 1 -220 18 -451
39 -400 36 -423 37 -448 21 -48 -32 -46 -110 4 -134 14 -6 217 -29 453 -51
235 -21 430 -42 433 -45 3 -2 -23 -57 -56 -121 -62 -116 -62 -116 -94 -111
-17 3 -231 25 -476 50 -245 25 -464 49 -488 53 -43 7 -45 9 -88 91 -26 51 -44
98 -44 118 l0 33 60 0 c51 0 65 4 85 25 31 30 32 66 1 101 -19 23 -34 29 -90
35 -37 3 -68 8 -70 10 -2 2 -6 55 -10 117 -7 104 -6 112 11 112 10 0 307 -25
661 -54z m-39 -796 c212 -22 398 -44 412 -48 l26 -7 -69 -132 -70 -133 -268 0
-268 0 -91 174 c-50 96 -91 177 -91 180 0 9 9 9 419 -34z"/>
<path d="M1776 4599 c-28 -22 -35 -64 -16 -100 25 -46 325 -167 500 -203 183
-37 319 -41 510 -15 231 31 571 164 595 232 12 35 -8 74 -47 96 -25 14 -31 13
-115 -27 -184 -87 -347 -133 -536 -152 -226 -22 -492 31 -732 146 -104 50
-122 52 -159 23z"/>
<path d="M1043 4530 c-47 -19 -57 -87 -18 -125 39 -40 96 -32 120 16 21 40 19
57 -14 90 -30 30 -50 34 -88 19z"/>
</g>
</svg>
