<?xml version="1.0" standalone="no"?>
<!DOCTYPE svg PUBLIC "-//W3C//DTD SVG 20010904//EN"
 "http://www.w3.org/TR/2001/REC-SVG-20010904/DTD/svg10.dtd">
<svg version="1.0" xmlns="http://www.w3.org/2000/svg"
 width="512.000000pt" height="512.000000pt" viewBox="0 0 512.000000 512.000000"
 preserveAspectRatio="xMidYMid meet">

<g transform="translate(0.000000,512.000000) scale(0.100000,-0.100000)"
fill="#fff" stroke="none">
<path d="M819 5092 c-30 -16 -94 -52 -144 -82 -195 -114 -347 -160 -467 -140
-64 11 -71 10 -115 -12 -26 -12 -56 -36 -67 -51 l-21 -28 0 -2297 0 -2297 22
-40 c25 -47 74 -95 123 -121 34 -18 113 -19 2410 -19 l2375 0 40 22 c47 25 95
74 121 123 18 34 19 111 19 2332 l0 2297 -21 28 c-11 15 -41 39 -67 51 -44 22
-51 23 -115 12 -120 -20 -272 26 -467 141 -151 89 -195 109 -238 109 -57 0
-123 -35 -159 -84 -42 -58 -111 -198 -141 -286 -54 -162 -62 -227 -61 -475 0
-248 13 -370 61 -589 22 -97 24 -121 13 -124 -32 -11 -101 -88 -133 -150 -91
-175 -131 -354 -257 -1157 -83 -522 -133 -789 -197 -1039 -159 -627 -368 -955
-658 -1031 -168 -43 -340 10 -481 150 -232 229 -393 679 -533 1485 -17 96 -56
335 -86 530 -107 688 -154 893 -242 1062 -32 62 -101 139 -133 150 -11 3 -9
27 13 124 46 210 61 349 61 594 1 182 -2 241 -17 308 -36 164 -112 349 -185
448 -36 49 -102 84 -159 84 -25 0 -61 -11 -94 -28z m168 -252 c58 -115 96
-236 112 -354 30 -212 -5 -601 -76 -858 -14 -53 -18 -58 -67 -82 -28 -14 -89
-58 -136 -97 -154 -129 -215 -161 -338 -179 -81 -11 -196 3 -264 32 l-48 20 0
690 0 689 53 -6 c62 -8 167 7 257 37 74 24 239 105 350 172 41 25 82 44 90 43
8 -1 39 -49 67 -107z m3363 28 c223 -126 355 -171 508 -172 l92 -1 -2 -689 -3
-690 -70 -25 c-53 -18 -92 -24 -160 -24 -157 -2 -245 37 -419 184 -39 34 -96
74 -127 89 -54 28 -56 30 -73 92 -82 304 -109 726 -61 948 30 139 138 376 168
368 7 -2 73 -38 147 -80z m-3195 -1484 c14 -15 38 -61 54 -103 63 -162 107
-383 212 -1046 39 -247 88 -542 110 -655 133 -684 296 -1105 519 -1343 l62
-67 -83 0 c-113 0 -149 12 -211 69 -118 108 -230 361 -332 751 -79 304 -150
666 -257 1320 -32 201 -73 439 -91 530 -29 154 -33 167 -64 198 -39 39 -92 43
-139 11 -204 -139 -494 -184 -708 -111 l-52 18 -3 87 c-1 48 1 87 5 87 4 0 32
-7 62 -15 135 -36 284 -27 417 24 82 32 151 76 250 160 132 113 202 136 249
85z m2932 9 c20 -9 84 -56 142 -105 114 -94 208 -147 311 -175 86 -22 253 -23
336 0 34 9 65 17 68 17 4 0 5 -39 4 -87 l-3 -87 -55 -19 c-196 -67 -447 -35
-656 85 -114 65 -176 63 -212 -7 -17 -33 -56 -243 -141 -750 -179 -1074 -279
-1488 -437 -1813 -52 -108 -76 -144 -127 -196 -73 -74 -103 -86 -226 -86 l-84
0 54 57 c228 240 388 651 523 1343 25 124 77 425 116 668 110 690 149 882 210
1040 49 129 92 156 177 115z m-3111 -615 c8 -40 53 -304 99 -587 47 -283 106
-616 130 -740 117 -588 241 -969 389 -1195 l56 -86 -711 0 -711 0 -29 29 -29
29 0 1272 0 1272 28 -6 c15 -3 63 -13 107 -22 160 -31 393 1 571 79 44 18 81
33 83 31 1 -1 9 -36 17 -76z m3441 -14 c169 -43 315 -42 506 2 l27 6 0 -1272
0 -1272 -29 -29 -29 -29 -711 0 -711 0 57 86 c126 194 238 511 337 955 58 261
100 492 186 1019 61 371 88 523 105 607 5 21 6 21 86 -14 44 -19 124 -45 176
-59z"/>
<path d="M1833 5106 c-175 -40 -300 -167 -354 -359 -33 -115 -33 -332 0 -496
42 -212 128 -457 201 -571 29 -45 30 -50 30 -168 0 -116 -1 -122 -23 -137 -32
-21 -67 -86 -67 -125 0 -37 472 -2416 496 -2500 49 -170 193 -342 325 -385 50
-17 154 -21 205 -9 134 31 280 188 343 369 22 66 511 2473 511 2520 0 39 -36
110 -65 129 -24 16 -25 20 -25 138 0 118 1 123 30 168 73 114 159 359 201 571
33 164 33 381 0 496 -73 259 -263 387 -546 370 -49 -3 -164 -22 -254 -42 -241
-53 -340 -51 -607 11 -137 31 -312 40 -401 20z m405 -196 c267 -60 380 -60
649 2 110 25 161 32 253 32 107 1 119 -1 172 -27 143 -70 204 -236 179 -485
-22 -213 -77 -415 -160 -583 l-46 -94 -722 -3 -723 -2 -44 87 c-52 106 -109
269 -136 390 -86 400 -17 649 198 710 70 20 223 9 380 -27z m1002 -1415 l0
-85 -680 0 -680 0 0 85 0 85 680 0 680 0 0 -85z m-65 -281 c-297 -250 -648
-399 -1083 -458 -62 -9 -133 -16 -157 -16 -43 0 -44 1 -51 38 -4 20 -26 133
-49 250 l-42 212 706 0 706 -1 -30 -25z m78 -349 c-51 -251 -37 -225 -194
-340 -265 -192 -634 -331 -985 -370 l-61 -7 -37 188 c-21 104 -40 199 -42 210
-5 20 0 22 78 28 442 38 862 192 1176 432 59 44 108 80 109 80 0 -1 -19 -100
-44 -221z m-143 -706 c-22 -118 -42 -219 -44 -225 -7 -19 -181 -123 -311 -185
-139 -68 -317 -128 -460 -157 -162 -33 -163 -33 -169 -14 -10 33 -76 364 -76
380 0 15 20 21 123 35 322 47 671 179 917 347 30 21 56 37 58 35 2 -1 -15 -99
-38 -216z m-95 -491 c-3 -13 -23 -113 -45 -222 -22 -110 -46 -204 -53 -208 -6
-5 -66 -35 -132 -67 -136 -67 -254 -110 -394 -145 -167 -42 -147 -46 -164 32
-38 172 -69 333 -65 338 3 2 43 11 89 19 233 41 478 126 684 237 82 44 87 45
80 16z m-154 -770 c-28 -138 -74 -233 -149 -307 -46 -47 -67 -61 -105 -69
-113 -24 -213 43 -287 190 -22 44 -40 86 -40 94 0 7 12 16 28 20 178 39 363
99 502 163 36 16 66 25 68 20 2 -4 -6 -55 -17 -111z"/>
<path d="M1895 4766 c-57 -26 -95 -90 -95 -162 0 -45 51 -88 94 -80 33 6 76
47 76 72 0 8 7 14 15 14 9 0 27 11 40 25 35 34 33 78 -4 116 -33 32 -75 38
-126 15z"/>
<path d="M1853 4324 c-23 -23 -25 -31 -20 -77 7 -67 63 -238 91 -280 39 -57
121 -46 147 20 6 16 -3 56 -30 140 -21 65 -42 133 -46 150 -14 69 -94 95 -142
47z"/>
</g>
</svg>
