<?xml version="1.0" standalone="no"?>
<!DOCTYPE svg PUBLIC "-//W3C//DTD SVG 20010904//EN"
 "http://www.w3.org/TR/2001/REC-SVG-20010904/DTD/svg10.dtd">
<svg version="1.0" xmlns="http://www.w3.org/2000/svg"
 width="512.000000pt" height="512.000000pt" viewBox="0 0 512.000000 512.000000"
 preserveAspectRatio="xMidYMid meet">

<g transform="translate(0.000000,512.000000) scale(0.100000,-0.100000)"
fill="#fff" stroke="none">
<path d="M200 5059 c-55 -25 -105 -71 -133 -124 -21 -37 -22 -54 -22 -245 l0
-205 32 -65 c38 -78 109 -152 178 -185 55 -27 219 -58 390 -75 60 -6 110 -12
111 -13 0 -1 8 -74 17 -161 18 -170 29 -202 80 -240 25 -18 42 -21 140 -21
101 0 115 2 145 23 18 13 39 36 46 51 11 20 46 267 46 321 0 5 8 6 18 4 9 -2
253 -8 541 -14 289 -6 527 -13 529 -15 2 -2 12 -75 22 -161 19 -166 26 -185
84 -228 24 -18 42 -21 136 -21 94 0 112 3 136 21 58 43 65 62 84 228 10 86 20
159 22 161 2 2 240 9 529 15 288 6 531 12 540 14 18 4 18 4 40 -197 13 -121
30 -157 89 -189 51 -28 226 -23 267 8 52 39 62 71 80 242 l17 161 65 6 c117
10 335 44 386 59 112 34 213 135 249 249 15 47 17 86 14 249 -3 216 -6 227
-79 298 -79 76 134 70 -2443 70 -2302 0 -2311 -1 -2356 -21z m4686 -115 c18
-9 43 -31 55 -50 19 -32 20 -45 17 -217 l-3 -184 -30 -49 c-62 -100 -144 -131
-410 -158 -412 -42 -988 -60 -1950 -60 -1287 0 -2085 40 -2249 113 -50 22 -99
70 -129 125 -19 36 -22 59 -25 204 -2 90 -1 174 2 187 8 30 53 84 80 95 12 5
1053 9 2314 9 2087 1 2297 0 2328 -15z m-3779 -817 c5 -5 -25 -266 -32 -277
-9 -14 -152 -13 -161 2 -7 10 -33 217 -34 267 l0 24 112 -6 c61 -4 113 -8 115
-10z m3133 -9 c-1 -50 -27 -256 -34 -266 -9 -15 -152 -16 -161 -2 -5 8 -34
238 -35 272 0 8 56 14 158 16 69 2 72 1 72 -20z m-1564 -40 c-3 -13 -10 -75
-17 -138 -6 -63 -16 -121 -21 -127 -7 -8 -36 -13 -78 -13 -42 0 -71 5 -78 13
-5 6 -15 64 -21 127 -7 63 -14 125 -17 138 -4 22 -4 22 116 22 120 0 120 0
116 -22z"/>
<path d="M925 3225 c-48 -24 -125 -100 -125 -124 0 -27 34 -61 62 -61 12 0 43
18 69 40 26 22 55 40 64 40 9 0 37 -18 62 -40 26 -23 56 -40 69 -40 25 0 64
31 64 51 0 31 -62 97 -123 132 -39 21 -102 22 -142 2z"/>
<path d="M4053 3219 c-60 -30 -126 -103 -118 -132 18 -58 68 -61 130 -7 25 22
53 40 62 40 8 0 35 -18 60 -40 53 -46 93 -53 117 -18 25 36 19 52 -38 107 -82
77 -134 89 -213 50z"/>
<path d="M2508 3086 c-40 -14 -117 -77 -132 -107 -13 -26 2 -69 26 -78 31 -11
49 -5 103 40 26 21 51 39 55 39 4 0 30 -18 56 -40 53 -44 91 -51 117 -22 28
30 20 60 -25 103 -74 70 -135 89 -200 65z"/>
<path d="M972 3029 c-34 -13 -42 -48 -42 -185 0 -149 12 -183 66 -184 47 0 54
25 54 192 0 113 -3 158 -12 165 -22 17 -42 21 -66 12z"/>
<path d="M4082 3018 c-8 -8 -12 -57 -12 -169 0 -130 3 -160 16 -173 19 -20 54
-20 80 -2 17 13 19 29 22 158 3 168 -4 191 -58 196 -19 2 -41 -3 -48 -10z"/>
<path d="M2520 2870 c-18 -18 -20 -33 -20 -167 0 -82 4 -153 8 -159 4 -6 17
-16 30 -23 23 -12 58 -1 74 23 4 6 8 77 8 159 0 134 -2 149 -20 167 -11 11
-29 20 -40 20 -11 0 -29 -9 -40 -20z"/>
<path d="M620 2305 c-238 -37 -380 -135 -474 -326 -133 -270 -126 -581 19
-914 42 -98 43 -103 50 -240 7 -163 28 -296 53 -337 35 -60 163 -119 318 -147
70 -13 210 -16 276 -6 40 6 50 3 89 -24 125 -86 486 -139 654 -96 l58 16 31
-29 c44 -42 61 -49 167 -69 74 -13 148 -17 344 -18 l251 0 52 27 52 27 52 -27
c51 -26 57 -27 253 -30 142 -3 235 1 320 12 157 21 189 30 235 72 l38 34 58
-15 c166 -43 528 10 652 96 43 29 46 30 116 22 142 -17 331 12 451 68 67 31
95 52 118 89 23 36 45 176 53 340 7 136 9 148 42 219 87 189 117 323 116 526
-1 179 -19 259 -90 404 -75 152 -186 248 -342 297 -355 110 -1012 9 -1702
-263 -187 -74 -263 -93 -370 -93 -107 0 -183 19 -370 93 -608 239 -1201 349
-1570 292z m420 -115 c334 -35 712 -132 1082 -279 247 -98 277 -105 438 -105
159 0 196 8 414 96 500 200 1012 310 1366 295 291 -12 426 -81 524 -266 100
-190 110 -485 25 -708 l-10 -27 -19 41 c-91 204 -385 203 -579 -2 -29 -30 -53
-55 -55 -55 -2 0 -9 18 -16 39 -78 238 -508 219 -705 -31 -17 -20 -32 -37 -35
-38 -3 0 -16 20 -29 45 -32 60 -109 130 -179 163 -50 24 -69 27 -157 27 -222
0 -411 -115 -503 -307 -20 -42 -39 -77 -42 -77 -3 0 -22 35 -42 78 -92 191
-280 306 -503 306 -87 0 -107 -3 -157 -27 -69 -32 -141 -96 -175 -157 -15 -25
-27 -47 -28 -48 -1 -1 -35 30 -76 70 -83 82 -165 127 -275 153 -182 43 -356
-27 -396 -158 -6 -21 -12 -38 -14 -38 -1 0 -29 27 -60 61 -81 84 -194 140
-298 147 -127 8 -221 -41 -270 -140 -25 -50 -26 -51 -35 -25 -20 51 -40 143
-52 232 -38 292 80 587 271 677 50 23 158 52 235 61 63 8 264 6 355 -3z m-397
-955 c68 -34 135 -102 172 -176 l27 -53 2 -278 1 -278 -45 -1 c-145 -4 -272
17 -367 61 -76 35 -78 42 -95 256 -21 275 11 445 92 487 51 26 139 19 213 -18z
m697 6 c118 -45 210 -133 251 -240 16 -44 18 -80 18 -327 -1 -154 2 -291 6
-306 6 -24 3 -28 -22 -35 -15 -4 -93 -8 -173 -7 -113 0 -165 6 -235 23 -116
28 -193 65 -207 100 -17 39 -22 363 -9 483 15 129 47 253 75 284 49 57 183 68
296 25z m785 14 c80 -21 146 -59 207 -119 113 -111 161 -298 162 -631 1 -104
-3 -203 -7 -218 -13 -48 -53 -57 -256 -57 -209 0 -403 21 -441 48 -14 10 -33
35 -44 56 -16 33 -18 64 -19 279 -1 242 12 405 38 480 49 144 189 206 360 162z
m1100 -13 c79 -41 126 -108 144 -207 34 -185 32 -667 -2 -719 -41 -61 -112
-75 -423 -83 -238 -6 -284 0 -307 40 -17 30 -16 384 1 497 18 120 48 225 79
277 57 97 161 176 274 208 73 20 182 14 234 -13z m817 2 c71 -42 106 -185 115
-474 7 -230 -4 -325 -39 -352 -31 -23 -119 -55 -203 -73 -128 -28 -365 -32
-400 -7 -7 5 -9 116 -5 322 l5 315 27 58 c47 101 156 187 279 222 71 20 176
14 221 -11z m644 10 c63 -30 87 -98 99 -279 7 -104 -7 -330 -26 -398 -9 -34
-17 -42 -72 -67 -96 -44 -210 -64 -362 -61 l-50 1 1 279 c1 271 1 279 25 327
75 157 266 255 385 198z"/>
</g>
</svg>
