<svg width="183" height="40" xmlns="http://www.w3.org/2000/svg" viewBox="0 0 352.26 66.02"><defs><style>.cls-1{fill:#17434a;}.cls-2{fill:#5dc6cb;}.cls-3{fill:#2a98a0;}</style></defs><path class="cls-1" d="M168.79,295.42h2.4v6.13H178v-6.13h2.4V310H178v-6.34h-6.78V310h-2.4Z" transform="translate(-104.06 -248.3)"/><path class="cls-1" d="M182.42,304.68a5.45,5.45,0,1,1,5.44,5.47A5.18,5.18,0,0,1,182.42,304.68Zm8.59,0c0-2.06-1.25-3.55-3.15-3.55s-3.13,1.49-3.13,3.55,1.23,3.55,3.13,3.55S191,306.75,191,304.68Z" transform="translate(-104.06 -248.3)"/><path class="cls-1" d="M195.12,310V299.34h4.65c2.78,0,4.15,1,4.15,2.84a2.19,2.19,0,0,1-1.87,2.31A2.33,2.33,0,0,1,204.3,307c0,2.07-1.5,3.07-4.44,3.07Zm2.21-6.22h2.51c1.25,0,1.81-.52,1.81-1.37s-.56-1.38-1.81-1.38h-2.51Zm0,4.51H200c1.28,0,2-.46,2-1.42s-.71-1.46-2-1.46h-2.71Z" transform="translate(-104.06 -248.3)"/><path class="cls-1" d="M206.09,310V299.34h2.26v3.32h2.48c2.69,0,4.28,1.37,4.28,3.69s-1.59,3.67-4.28,3.67Zm2.26-1.79h2.1c1.53,0,2.36-.69,2.36-1.88s-.83-1.9-2.36-1.9h-2.1Zm8.32,1.79V299.34h2.25V310Z" transform="translate(-104.06 -248.3)"/><path class="cls-1" d="M220.74,304.7c0-3.29,2.11-5.49,5.26-5.49a4.89,4.89,0,0,1,5.21,5.09,6.33,6.33,0,0,1-.06.86H223.1v.15a2.86,2.86,0,0,0,3,3,2.55,2.55,0,0,0,2.69-1.88H231a4.6,4.6,0,0,1-4.82,3.72A5.11,5.11,0,0,1,220.74,304.7Zm8.13-1.19A2.66,2.66,0,0,0,226,301a2.76,2.76,0,0,0-2.84,2.48Z" transform="translate(-104.06 -248.3)"/><path class="cls-1" d="M247.65,306.93c0,2-1.85,3.22-4.88,3.22-3.21,0-4.53-1.3-4.63-3.57h2.27c.19,1.19.82,1.83,2.38,1.83s2.57-.58,2.57-1.56-.69-1.36-1.92-1.36h-1.67v-1.73h1.52c1.17,0,1.84-.44,1.84-1.42s-.81-1.37-2.23-1.37-2.24.64-2.42,1.71H238.2c.13-2.07,1.82-3.47,4.76-3.47s4.46,1.19,4.46,3a2.23,2.23,0,0,1-2,2.29A2.32,2.32,0,0,1,247.65,306.93Z" transform="translate(-104.06 -248.3)"/><path class="cls-1" d="M256.44,299.34h2.25v10.49c0,2.59-1.5,4.49-5.07,4.49-2.67,0-4.49-1.23-4.67-3.61h2.29a2.3,2.3,0,0,0,2.57,1.77,2.41,2.41,0,0,0,2.65-2.65v-1.44a3.67,3.67,0,0,1-3.24,1.67c-2.27,0-4.25-1.19-4.25-4.8v-5.92h2.27V305c0,2,.86,3.06,2.48,3.06s2.72-1.29,2.72-3.46Z" transform="translate(-104.06 -248.3)"/><path class="cls-1" d="M271.21,305c0,2.94-2.07,5.11-5.41,5.11s-5.32-1.94-5.32-6.16c0-5.48,1.42-7.65,6.12-8.24l3.71-.46v2l-3.19.39c-3.28.42-4.22,1.21-4.57,4.05a5,5,0,0,1,8.66,3.28Zm-2.3.1a3,3,0,0,0-3-3.17,2.94,2.94,0,0,0-3.11,3,3.07,3.07,0,1,0,6.13.17Z" transform="translate(-104.06 -248.3)"/><path class="cls-1" d="M273,310V299.34h2.25v3.32h2.49c2.69,0,4.27,1.37,4.27,3.69s-1.58,3.67-4.27,3.67Zm2.25-1.79h2.11c1.52,0,2.36-.69,2.36-1.88s-.84-1.9-2.36-1.9h-2.11ZM283.6,310V299.34h2.25V310Z" transform="translate(-104.06 -248.3)"/><path class="cls-1" d="M293.64,310V299.34h2.19v7.41l5.75-7.41h2V310h-2.19v-7.43L295.6,310Z" transform="translate(-104.06 -248.3)"/><path class="cls-1" d="M318.67,299.34h2.26v10.49c0,2.59-1.51,4.49-5.07,4.49-2.67,0-4.49-1.23-4.68-3.61h2.3a2.3,2.3,0,0,0,2.57,1.77,2.4,2.4,0,0,0,2.64-2.65v-1.44a3.64,3.64,0,0,1-3.23,1.67c-2.27,0-4.25-1.19-4.25-4.8v-5.92h2.27V305c0,2,.85,3.06,2.48,3.06s2.71-1.29,2.71-3.46Z" transform="translate(-104.06 -248.3)"/><path class="cls-1" d="M321.55,310v-2h.38c1.1,0,1.54-.69,1.54-3.57v-5.13H332V310h-2.25v-8.7H325.6v3.24c0,4.23-1.09,5.46-3.32,5.46Z" transform="translate(-104.06 -248.3)"/><path class="cls-1" d="M334.17,310V299.34h2.26v3.32h2.48c2.69,0,4.28,1.37,4.28,3.69S341.6,310,338.91,310Zm2.26-1.79h2.1c1.53,0,2.36-.69,2.36-1.88s-.83-1.9-2.36-1.9h-2.1Zm8.32,1.79V299.34H347V310Z" transform="translate(-104.06 -248.3)"/><path class="cls-1" d="M359.65,305c0,2.94-2.07,5.11-5.41,5.11s-5.32-1.94-5.32-6.16c0-5.48,1.42-7.65,6.11-8.24l3.72-.46v2l-3.19.39c-3.28.42-4.22,1.21-4.57,4.05a5,5,0,0,1,8.66,3.28Zm-2.3.1a3,3,0,0,0-3-3.17,2.94,2.94,0,0,0-3.11,3,3.07,3.07,0,1,0,6.13.17Z" transform="translate(-104.06 -248.3)"/><path class="cls-1" d="M361.46,310V299.34h2.25v4.28h2l3.06-4.28h2.53l-3.7,5.09,4,5.59H369l-3.21-4.42h-2V310Z" transform="translate(-104.06 -248.3)"/><path class="cls-1" d="M380.74,299.34h2V310h-2l-.26-1.63a4.11,4.11,0,0,1-3.48,1.76c-2.9,0-5.05-2-5.05-5.47s2.15-5.47,5.05-5.47a4,4,0,0,1,3.48,1.69Zm-.28,5.38c0-2.1-1.23-3.59-3.1-3.59s-3.11,1.46-3.11,3.55,1.23,3.57,3.11,3.57S380.46,306.79,380.46,304.72Z" transform="translate(-104.06 -248.3)"/><path class="cls-1" d="M390.09,304.7a5.12,5.12,0,0,1,5.36-5.49,4.58,4.58,0,0,1,4.9,4H398a2.47,2.47,0,0,0-2.58-2c-1.82,0-3,1.46-3,3.57s1.19,3.53,3,3.53a2.47,2.47,0,0,0,2.56-2h2.38a4.65,4.65,0,0,1-5,3.95C392.15,310.15,390.09,308,390.09,304.7Z" transform="translate(-104.06 -248.3)"/><path class="cls-1" d="M412.85,304.68c0,3.3-2.13,5.47-5.05,5.47a4,4,0,0,1-3.47-1.63v5.67h-2.25V299.34h2l.27,1.59a4.19,4.19,0,0,1,3.49-1.72C410.72,299.21,412.85,301.26,412.85,304.68Zm-2.3,0c0-2.11-1.25-3.55-3.13-3.55s-3.11,1.44-3.11,3.51,1.23,3.61,3.11,3.61S410.55,306.77,410.55,304.68Z" transform="translate(-104.06 -248.3)"/><path class="cls-1" d="M423.07,299.34h2V310h-2l-.25-1.63a4.14,4.14,0,0,1-3.49,1.76c-2.9,0-5.05-2-5.05-5.47s2.15-5.47,5.05-5.47a4,4,0,0,1,3.49,1.69Zm-.27,5.38c0-2.1-1.23-3.59-3.11-3.59s-3.11,1.46-3.11,3.55,1.23,3.57,3.11,3.57S422.8,306.79,422.8,304.72Z" transform="translate(-104.06 -248.3)"/><path class="cls-1" d="M436.25,306.93c0,2-1.85,3.22-4.88,3.22-3.21,0-4.53-1.3-4.63-3.57H429c.19,1.19.82,1.83,2.38,1.83s2.57-.58,2.57-1.56-.69-1.36-1.92-1.36h-1.67v-1.73h1.52c1.17,0,1.84-.44,1.84-1.42s-.82-1.37-2.23-1.37-2.24.64-2.42,1.71H426.8c.13-2.07,1.82-3.47,4.76-3.47s4.46,1.19,4.46,3a2.23,2.23,0,0,1-2,2.29A2.32,2.32,0,0,1,436.25,306.93Z" transform="translate(-104.06 -248.3)"/><path class="cls-1" d="M445,299.34h2.25v10.49c0,2.59-1.5,4.49-5.07,4.49-2.67,0-4.49-1.23-4.67-3.61h2.29a2.3,2.3,0,0,0,2.57,1.77,2.41,2.41,0,0,0,2.65-2.65v-1.44a3.67,3.67,0,0,1-3.24,1.67c-2.27,0-4.25-1.19-4.25-4.8v-5.92h2.27V305c0,2,.86,3.06,2.48,3.06s2.72-1.29,2.72-3.46Z" transform="translate(-104.06 -248.3)"/><path class="cls-2" d="M144.71,255.82a4.52,4.52,0,0,0-4.52,4.52h-7.53a12,12,0,0,1,24.09,0h-7.53A4.52,4.52,0,0,0,144.71,255.82Z" transform="translate(-104.06 -248.3)"/><path class="cls-2" d="M277.25,277.55v-5.13h16.06v5.13Z" transform="translate(-104.06 -248.3)"/><path class="cls-2" d="M314.68,264.87h5.44v22.55h-5.49l-.52-3.15a8.54,8.54,0,0,1-6.93,3.37c-6.06.05-10.49-4.38-10.49-11.54,0-7,4.43-11.54,10.44-11.54a8.28,8.28,0,0,1,6.93,3.29ZM314,276.19c0-3.86-2.11-6.54-5.48-6.54s-5.53,2.68-5.53,6.54,2.15,6.45,5.53,6.45S314,280,314,276.19Z" transform="translate(-104.06 -248.3)"/><path class="cls-2" d="M324.07,258.55h6.19v6.32h5.13v5.22h-5.13V280c0,1.58.61,2.24,2.19,2.24h3.2v5.22h-5.13q-6.45,0-6.45-6.45Z" transform="translate(-104.06 -248.3)"/><path class="cls-2" d="M337.41,277.55v-5.13h16.06v5.13Z" transform="translate(-104.06 -248.3)"/><path class="cls-3" d="M149.22,269.37h-9a13.55,13.55,0,0,1-27.1,0h-9a22.58,22.58,0,0,0,45.16,0Z" transform="translate(-104.06 -248.3)"/><path class="cls-3" d="M173.17,279.92c.22,2,1.93,3.34,5,3.34,2.59,0,4.17-.84,4.17-2.42,0-1.84-1.54-2-5.18-2.45-5.27-.62-9.35-1.8-9.35-6.46,0-4.47,3.91-7.41,9.7-7.37,6.05,0,10.22,2.68,10.53,7.29h-5.92c-.18-1.8-1.89-2.9-4.39-2.9s-4,.88-4,2.33c0,1.71,1.94,1.88,5.18,2.28,5.18.52,9.48,1.71,9.48,6.8,0,4.48-4.21,7.33-10.27,7.33-6.27,0-10.53-2.94-10.79-7.77Z" transform="translate(-104.06 -248.3)"/><path class="cls-3" d="M226.92,274.48v12.94h-6.19V274.83c0-3.38-1.22-5.13-3.9-5.13s-4.48,2-4.48,5.39v12.33h-6.18V274.83c0-3.38-1.23-5.13-3.95-5.13s-4.44,2.06-4.44,5.44v12.28H191.6V264.87H197l.58,2.81a7.85,7.85,0,0,1,6.62-3.07,6.88,6.88,0,0,1,6.76,3.81,8.68,8.68,0,0,1,7.63-3.81C223.23,264.61,226.92,267.24,226.92,274.48Z" transform="translate(-104.06 -248.3)"/><path class="cls-3" d="M230.34,259a3.6,3.6,0,1,1,3.6,3.47A3.49,3.49,0,0,1,230.34,259Zm.49,5.88h6.23v22.55h-6.23Z" transform="translate(-104.06 -248.3)"/><path class="cls-3" d="M241.31,256.71h6.19v30.71h-6.19Z" transform="translate(-104.06 -248.3)"/><path class="cls-3" d="M250.92,276.19c0-7,4.61-11.58,11.59-11.58,6.75,0,11.32,4.21,11.41,10.84a11.84,11.84,0,0,1-.18,2.1H257.37v.31a5,5,0,0,0,5.31,5.13c2.5,0,4.26-1.09,4.79-3.2h6.09c-.7,4.39-4.6,7.9-10.61,7.9C255.44,287.69,250.92,283.17,250.92,276.19Zm16.76-2.68a5.16,5.16,0,0,0-10.18,0Z" transform="translate(-104.06 -248.3)"/><path class="cls-3" d="M356.85,276.15c0-6.94,4.69-11.54,11.89-11.54s11.89,4.6,11.89,11.54-4.7,11.54-11.89,11.54S356.85,283.08,356.85,276.15Zm17.5,0c0-3.82-2.15-6.5-5.61-6.5s-5.57,2.68-5.57,6.5,2.1,6.49,5.57,6.49S374.35,280,374.35,276.15Z" transform="translate(-104.06 -248.3)"/><path class="cls-3" d="M383.66,287.42v-12.5c0-7.72,4.17-10.31,10.88-10.31s10.88,2.59,10.88,10.31v12.5h-6.19V275.53c0-3.81-1-5.83-4.69-5.83s-4.7,2-4.7,5.83v11.89Z" transform="translate(-104.06 -248.3)"/><path class="cls-3" d="M408.36,276.15c0-7,4.56-11.54,11.72-11.54,6.14,0,10,3.33,10.83,8.69h-6.45a4.34,4.34,0,0,0-4.47-3.65c-3.25,0-5.31,2.68-5.31,6.5s2.06,6.49,5.31,6.49a4.31,4.31,0,0,0,4.47-3.73H431c-.88,5.4-5,8.78-11.1,8.78C412.7,287.69,408.36,283.26,408.36,276.15Z" transform="translate(-104.06 -248.3)"/><path class="cls-3" d="M433.33,276.19c0-7,4.6-11.58,11.58-11.58,6.76,0,11.32,4.21,11.41,10.84a11,11,0,0,1-.18,2.1H439.78v.31a5,5,0,0,0,5.31,5.13c2.5,0,4.25-1.09,4.78-3.2H456c-.7,4.39-4.61,7.9-10.62,7.9C437.85,287.69,433.33,283.17,433.33,276.19Zm16.76-2.68a5.16,5.16,0,0,0-10.18,0Z" transform="translate(-104.06 -248.3)"/></svg>